<svg xmlns="http://www.w3.org/2000/svg" width="18.75" height="18.75" viewBox="0 0 18.75 18.75">
  <path id="Icon_material-person-outline" data-name="Icon material-person-outline" d="M13.542,6.393a2.461,2.461,0,1,1-2.461,2.461,2.461,2.461,0,0,1,2.461-2.461m0,10.547c3.48,0,7.148,1.711,7.148,2.461V20.69H6.393V19.4c0-.75,3.668-2.461,7.148-2.461m0-12.773a4.688,4.688,0,1,0,4.687,4.688,4.686,4.686,0,0,0-4.687-4.688Zm0,10.547c-3.129,0-9.375,1.57-9.375,4.687v3.516h18.75V19.4c0-3.117-6.246-4.687-9.375-4.687Z" transform="translate(-4.167 -4.167)" fill="#777b96"/>
</svg>
